# xmcd
# Track frame offsets:
# 150
# 10568
# 24598
# 40280
# 49896
# 63991
# 78047
# 91750
# 106394
# 117707
#
# Disc length: 1729 seconds
# Revision: 0
# Processed by: cddbd v1.5.1PL0 Copyright (c) Steve Scherf et al.
# Submitted via: VisiTrax 2.9.10.228 - For more info visit www.synapsa.com
#
DISCID=7306bf0a
DTITLE=Charley Pride - Amazing Love
DYEAR=1973
DGENRE=
TTITLE0=Comin' Down With Love
TTITLE1=If She Just Helps Me (Get Over You)
TTITLE2=I'm Only Losing Everything I Threw Away
TTITLE3=Footprints In The Sands Of Time
TTITLE4=It Amazes Me
TTITLE5=Blue Ridge Mountains Turning Green
TTITLE6=I've Just Found Another Reason For Loving You
TTITLE7=Old Photographs
TTITLE8=I'm Glad It Was You
TTITLE9=Mr. Joe Henry's Happy Hand Clappin' Open Air Rhythm Band
EXTD=
EXTT0=
EXTT1=
EXTT2=
EXTT3=
EXTT4=
EXTT5=
EXTT6=
EXTT7=
EXTT8=
EXTT9=
PLAYORDER=
